<svg width="30" height="35" viewBox="0 0 30 35" fill="none" xmlns="http://www.w3.org/2000/svg">
<path d="M1.07143 8.78906H28.9286C29.5203 8.78906 30 8.31212 30 7.72372V5.06037C30 4.47197 29.5203 3.99503 28.9286 3.99503H1.07143C0.479665 3.99503 0 4.47197 0 5.06037V7.72372C0 8.31212 0.479665 8.78906 1.07143 8.78906ZM1.07143 19.4425H28.9286C29.5203 19.4425 30 18.9655 30 18.3771V15.7138C30 15.1254 29.5203 14.6484 28.9286 14.6484H1.07143C0.479665 14.6484 0 15.1254 0 15.7138V18.3771C0 18.9655 0.479665 19.4425 1.07143 19.4425ZM1.07143 30.0959H28.9286C29.5203 30.0959 30 29.6189 30 29.0305V26.3672C30 25.7788 29.5203 25.3018 28.9286 25.3018H1.07143C0.479665 25.3018 0 25.7788 0 26.3672V29.0305C0 29.6189 0.479665 30.0959 1.07143 30.0959Z" fill="#E9A3DB"/>
</svg>
