<svg width="650" height="849" viewBox="0 0 650 849" fill="none" xmlns="http://www.w3.org/2000/svg">
<g opacity="0.2">
<rect opacity="0.81" x="78.2708" width="84.66" height="84.66" transform="rotate(45 78.2708 0)" fill="#92DBE1"/>
<rect opacity="0.81" x="261" y="121.288" width="32.8006" height="32.8006" transform="rotate(-23.8988 261 121.288)" fill="#92DBE1"/>
<rect opacity="0.81" x="461.864" y="443.061" width="35.0769" height="35.0769" transform="rotate(45 461.864 443.061)" fill="#92DBE1"/>
<circle opacity="0.92" cx="62.8143" cy="478.058" r="40.15" transform="rotate(147 62.8143 478.058)" stroke="#92DBE1" stroke-width="10"/>
<circle opacity="0.92" cx="143.402" cy="352.402" r="7.58019" transform="rotate(147 143.402 352.402)" stroke="#92DBE1" stroke-width="10"/>
<circle opacity="0.92" cx="35.4023" cy="184.402" r="7.58019" transform="rotate(147 35.4023 184.402)" stroke="#92DBE1" stroke-width="10"/>
<path opacity="0.96" d="M295.259 299.433L207.917 372.721L188.119 260.437L295.259 299.433Z" stroke="#E9A3DB" stroke-width="10"/>
<path opacity="0.96" d="M464.249 209.862L452.991 146.017L403.328 187.689L464.249 209.862Z" stroke="#E9A3DB" stroke-width="10"/>
<path opacity="0.96" d="M233.997 497.777L232.093 486.982L223.696 494.028L233.997 497.777Z" stroke="#E9A3DB" stroke-width="10"/>
<path opacity="0.87" d="M792.464 804.961L674.024 766.477L766.571 683.147L792.464 804.961Z" stroke="#E9A3DB" stroke-width="10"/>
</g>
</svg>
