<svg width="39" height="40" viewBox="0 0 39 40" fill="none" xmlns="http://www.w3.org/2000/svg">
<path d="M13.0446 31.0469C13.0446 31.2031 12.8637 31.3281 12.6357 31.3281C12.3762 31.3516 12.1954 31.2266 12.1954 31.0469C12.1954 30.8906 12.3762 30.7656 12.6042 30.7656C12.8401 30.7422 13.0446 30.8672 13.0446 31.0469ZM10.5992 30.6953C10.5442 30.8516 10.7014 31.0312 10.9373 31.0781C11.1417 31.1562 11.3776 31.0781 11.4248 30.9219C11.472 30.7656 11.3226 30.5859 11.0867 30.5156C10.8823 30.4609 10.6542 30.5391 10.5992 30.6953ZM14.0746 30.5625C13.8466 30.6172 13.6893 30.7656 13.7129 30.9453C13.7365 31.1016 13.9409 31.2031 14.1768 31.1484C14.4048 31.0938 14.5621 30.9453 14.5385 30.7891C14.5149 30.6406 14.3026 30.5391 14.0746 30.5625ZM19.2484 0.625C8.34254 0.625 0 8.85156 0 19.6875C0 28.3516 5.48831 35.7656 13.3276 38.375C14.3341 38.5547 14.6879 37.9375 14.6879 37.4297C14.6879 36.9453 14.6643 34.2734 14.6643 32.6328C14.6643 32.6328 9.16028 33.8047 8.00444 30.3047C8.00444 30.3047 7.10806 28.0312 5.81855 27.4453C5.81855 27.4453 4.01794 26.2188 5.94435 26.2422C5.94435 26.2422 7.90222 26.3984 8.97943 28.2578C10.7014 31.2734 13.5871 30.4062 14.7115 29.8906C14.8923 28.6406 15.4034 27.7734 15.9696 27.2578C11.5742 26.7734 7.13952 26.1406 7.13952 18.625C7.13952 16.4766 7.7371 15.3984 8.99516 14.0234C8.79073 13.5156 8.12238 11.4219 9.1996 8.71875C10.8429 8.21094 14.625 10.8281 14.625 10.8281C16.1976 10.3906 17.8881 10.1641 19.5629 10.1641C21.2377 10.1641 22.9282 10.3906 24.5008 10.8281C24.5008 10.8281 28.2829 8.20312 29.9262 8.71875C31.0034 11.4297 30.3351 13.5156 30.1306 14.0234C31.3887 15.4062 32.1593 16.4844 32.1593 18.625C32.1593 26.1641 27.528 26.7656 23.1327 27.2578C23.856 27.875 24.4694 29.0469 24.4694 30.8828C24.4694 33.5156 24.4458 36.7734 24.4458 37.4141C24.4458 37.9219 24.8075 38.5391 25.806 38.3594C33.669 35.7656 39 28.3516 39 19.6875C39 8.85156 30.1542 0.625 19.2484 0.625ZM7.64274 27.5703C7.54052 27.6484 7.56411 27.8281 7.69778 27.9766C7.82359 28.1016 8.00444 28.1562 8.10665 28.0547C8.20887 27.9766 8.18528 27.7969 8.05161 27.6484C7.92581 27.5234 7.74496 27.4688 7.64274 27.5703ZM6.79355 26.9375C6.73851 27.0391 6.81714 27.1641 6.97439 27.2422C7.1002 27.3203 7.25746 27.2969 7.3125 27.1875C7.36754 27.0859 7.28891 26.9609 7.13165 26.8828C6.97439 26.8359 6.84859 26.8594 6.79355 26.9375ZM9.34113 29.7188C9.21532 29.8203 9.2625 30.0547 9.44335 30.2031C9.62419 30.3828 9.85222 30.4062 9.95444 30.2812C10.0567 30.1797 10.0095 29.9453 9.85222 29.7969C9.67923 29.6172 9.44335 29.5938 9.34113 29.7188ZM8.44476 28.5703C8.31895 28.6484 8.31895 28.8516 8.44476 29.0312C8.57056 29.2109 8.78286 29.2891 8.88508 29.2109C9.01089 29.1094 9.01089 28.9062 8.88508 28.7266C8.775 28.5469 8.57056 28.4688 8.44476 28.5703Z" fill="#E9A3DB"/>
</svg>
