<svg width="36" height="40" viewBox="0 0 36 40" fill="none" xmlns="http://www.w3.org/2000/svg">
<g clip-path="url(#clip0)">
<path d="M18.0079 11.0156C12.8972 11.0156 8.77492 15.0234 8.77492 19.9922C8.77492 24.9609 12.8972 28.9687 18.0079 28.9687C23.1187 28.9687 27.241 24.9609 27.241 19.9922C27.241 15.0234 23.1187 11.0156 18.0079 11.0156ZM18.0079 25.8281C14.7053 25.8281 12.0053 23.2109 12.0053 19.9922C12.0053 16.7734 14.6972 14.1562 18.0079 14.1562C21.3187 14.1562 24.0106 16.7734 24.0106 19.9922C24.0106 23.2109 21.3106 25.8281 18.0079 25.8281ZM29.7722 10.6484C29.7722 11.8125 28.8079 12.7422 27.6187 12.7422C26.4213 12.7422 25.4651 11.8047 25.4651 10.6484C25.4651 9.49219 26.4294 8.55469 27.6187 8.55469C28.8079 8.55469 29.7722 9.49219 29.7722 10.6484ZM35.8874 12.7734C35.7508 9.96875 35.0919 7.48438 32.9785 5.4375C30.8731 3.39062 28.3178 2.75 25.4329 2.60937C22.4597 2.44531 13.5481 2.44531 10.5749 2.60937C7.69813 2.74219 5.14278 3.38281 3.02939 5.42969C0.915994 7.47656 0.265102 9.96094 0.120459 12.7656C-0.048291 15.6562 -0.048291 24.3203 0.120459 27.2109C0.257066 30.0156 0.915994 32.5 3.02939 34.5469C5.14278 36.5938 7.6901 37.2344 10.5749 37.375C13.5481 37.5391 22.4597 37.5391 25.4329 37.375C28.3178 37.2422 30.8731 36.6016 32.9785 34.5469C35.0838 32.5 35.7428 30.0156 35.8874 27.2109C36.0562 24.3203 36.0562 15.6641 35.8874 12.7734ZM32.0463 30.3125C31.4195 31.8438 30.2062 33.0234 28.6231 33.6406C26.2526 34.5547 20.6276 34.3438 18.0079 34.3438C15.3883 34.3438 9.75527 34.5469 7.39278 33.6406C5.81778 33.0312 4.60438 31.8516 3.96956 30.3125C3.02939 28.0078 3.24635 22.5391 3.24635 19.9922C3.24635 17.4453 3.03742 11.9688 3.96956 9.67188C4.59635 8.14062 5.80974 6.96094 7.39278 6.34375C9.76331 5.42969 15.3883 5.64062 18.0079 5.64062C20.6276 5.64062 26.2606 5.4375 28.6231 6.34375C30.1981 6.95312 31.4115 8.13281 32.0463 9.67188C32.9865 11.9766 32.7695 17.4453 32.7695 19.9922C32.7695 22.5391 32.9865 28.0156 32.0463 30.3125Z" fill="#E9A3DB"/>
</g>
<defs>
<clipPath id="clip0">
<rect width="36" height="40" fill="white"/>
</clipPath>
</defs>
</svg>
