<svg width="40" height="40" viewBox="0 0 40 40" fill="none" xmlns="http://www.w3.org/2000/svg">
<path d="M35.8883 11.8526C35.9137 12.2079 35.9137 12.5633 35.9137 12.9186C35.9137 23.7561 27.665 36.2435 12.5888 36.2435C7.94414 36.2435 3.62945 34.8983 0 32.5633C0.659922 32.6394 1.29437 32.6648 1.97969 32.6648C5.81211 32.6648 9.34008 31.3704 12.1573 29.1623C8.55328 29.0861 5.53297 26.7258 4.49234 23.477C5 23.5531 5.50758 23.6039 6.04063 23.6039C6.77664 23.6039 7.51273 23.5023 8.19797 23.3247C4.44164 22.5633 1.6243 19.2638 1.6243 15.279V15.1776C2.71563 15.7867 3.98477 16.1674 5.32984 16.2181C3.12172 14.746 1.67508 12.2333 1.67508 9.39068C1.67508 7.86787 2.08109 6.47193 2.7918 5.25365C6.82734 10.2283 12.8934 13.4769 19.6953 13.8323C19.5684 13.2232 19.4923 12.5887 19.4923 11.9542C19.4923 7.43638 23.1471 3.75623 27.6902 3.75623C30.0506 3.75623 32.1826 4.74607 33.6801 6.34505C35.5328 5.98974 37.3095 5.30443 38.8831 4.36537C38.2739 6.26896 36.9795 7.86794 35.2791 8.8831C36.9288 8.70552 38.5278 8.24857 39.9998 7.61412C38.8833 9.23841 37.4873 10.6851 35.8883 11.8526Z" fill="#E9A3DB"/>
</svg>
